<?xml version="1.0" encoding="UTF-8" standalone="no"?>
<!-- Created with Inkscape (http://www.inkscape.org/) -->

<svg
   width="52mm"
   height="52mm"
   viewBox="0 0 52 52"
   version="1.1"
   id="svg1"
   inkscape:version="1.4 (86a8ad7, 2024-10-11)"
   sodipodi:docname="Badge.svg"
   xmlns:inkscape="http://www.inkscape.org/namespaces/inkscape"
   xmlns:sodipodi="http://sodipodi.sourceforge.net/DTD/sodipodi-0.dtd"
   xmlns="http://www.w3.org/2000/svg"
   xmlns:svg="http://www.w3.org/2000/svg">
  <sodipodi:namedview
     id="namedview1"
     pagecolor="#ffffff"
     bordercolor="#000000"
     borderopacity="0.25"
     inkscape:showpageshadow="2"
     inkscape:pageopacity="0.0"
     inkscape:pagecheckerboard="0"
     inkscape:deskcolor="#d1d1d1"
     inkscape:document-units="mm"
     inkscape:zoom="2.0485264"
     inkscape:cx="286.05929"
     inkscape:cy="143.27372"
     inkscape:window-width="1920"
     inkscape:window-height="1094"
     inkscape:window-x="-11"
     inkscape:window-y="-11"
     inkscape:window-maximized="1"
     inkscape:current-layer="layer1"
     showgrid="false" />
  <defs
     id="defs1" />
  <g
     inkscape:label="Layer 1"
     inkscape:groupmode="layer"
     id="layer1">
    <path
       d="M 37.997803,38.022091 25.875028,25.899316 13.794629,37.979716 a 12,12 0 0 0 0.205155,0.02015 12,12 0 0 0 11.999785,11.999784 12,12 0 0 0 11.998234,-11.977563 z"
       style="fill:#0b0b0b;fill-opacity:1;stroke:#000000;stroke-width:1.5;stroke-dasharray:none;stroke-opacity:1"
       id="path7" />
    <path
       d="M 26.000085,2 A 12,12 0 0 0 13.999784,13.999784 12,12 0 0 0 2,25.999569 12,12 0 0 0 5.7677287,34.692578 L 20.218009,20.242297 25.875028,14.585278 31.531531,20.242297 46.094983,34.80575 A 12,12 0 0 0 49.999654,26.000085 12,12 0 0 0 37.99987,13.999784 12,12 0 0 0 26.000085,2 Z"
       style="fill:#008000;stroke:#2b6933;stroke-width:1.5;stroke-dasharray:none;stroke-opacity:1"
       id="path4" />
    <path
       d="M 46.094983,34.80575 31.531531,20.242297 25.875028,14.585278 20.218009,20.242297 5.7677287,34.692578 a 12,12 0 0 0 8.0269003,3.287138 l 12.080399,-12.0804 12.122775,12.122775 a 12,12 0 0 0 0.0021,-0.02222 12,12 0 0 0 8.095113,-3.19412 z"
       style="fill:#ffffff;stroke:#cbcbcb;stroke-width:1.5;stroke-dasharray:none;stroke-opacity:1"
       id="path6" />
  </g>
</svg>
